<?xml version="1.0" encoding="UTF-8" standalone="no"?>
<!-- Created with Inkscape (http://www.inkscape.org/) -->

<svg
   width="549.53137"
   height="100"
   viewBox="0 0 549.53137 100"
   version="1.1"
   id="svg1"
   inkscape:version="1.3.2 (091e20e, 2023-11-25, custom)"
   sodipodi:docname="mlsec-title-white.svg"
   inkscape:export-filename="..\Downloads\logos-final\mlsec-title.svg"
   inkscape:export-xdpi="300"
   inkscape:export-ydpi="300"
   xml:space="preserve"
   xmlns:inkscape="http://www.inkscape.org/namespaces/inkscape"
   xmlns:sodipodi="http://sodipodi.sourceforge.net/DTD/sodipodi-0.dtd"
   xmlns="http://www.w3.org/2000/svg"
   xmlns:svg="http://www.w3.org/2000/svg"><sodipodi:namedview
   id="namedview1"
   pagecolor="#383838"
   bordercolor="#000000"
   borderopacity="0.25"
   inkscape:showpageshadow="2"
   inkscape:pageopacity="0.0"
   inkscape:pagecheckerboard="0"
   inkscape:deskcolor="#d1d1d1"
   inkscape:document-units="px"
   showgrid="true"
   showguides="true"
   inkscape:zoom="2.1220118"
   inkscape:cx="277.56679"
   inkscape:cy="45.475713"
   inkscape:window-width="2560"
   inkscape:window-height="1369"
   inkscape:window-x="2552"
   inkscape:window-y="-8"
   inkscape:window-maximized="1"
   inkscape:current-layer="layer1"
   inkscape:export-bgcolor="#ffffff00"><inkscape:grid
     id="grid1"
     units="px"
     originx="-5.3290705e-15"
     originy="-5.3290705e-15"
     spacingx="1"
     spacingy="1"
     empcolor="#0099e5"
     empopacity="0.30196078"
     color="#0099e5"
     opacity="0.14901961"
     empspacing="5"
     dotted="false"
     gridanglex="30"
     gridanglez="30"
     visible="true" /><sodipodi:guide
     position="-5.3290705e-15,100"
     orientation="0.70710678,0.70710678"
     id="guide2"
     inkscape:locked="false"
     inkscape:label=""
     inkscape:color="rgb(224,27,36)" /><sodipodi:guide
     position="45,100"
     orientation="-1,0"
     id="guide3"
     inkscape:locked="false"
     inkscape:label=""
     inkscape:color="rgb(224,27,36)" /><sodipodi:guide
     position="-5.3290705e-15,55"
     orientation="0,1"
     id="guide4"
     inkscape:locked="false"
     inkscape:label=""
     inkscape:color="rgb(224,27,36)" /><sodipodi:guide
     position="54,46"
     orientation="0.70710678,-0.70710678"
     id="guide6"
     inkscape:locked="false"
     inkscape:label=""
     inkscape:color="rgb(224,27,36)" /><sodipodi:guide
     position="32,24"
     orientation="0.70710678,0.70710678"
     id="guide7"
     inkscape:locked="false"
     inkscape:label=""
     inkscape:color="rgb(224,27,36)" /><sodipodi:guide
     position="1,55"
     orientation="0.70710678,-0.70710678"
     id="guide8"
     inkscape:locked="false"
     inkscape:label=""
     inkscape:color="rgb(145,65,172)" /><sodipodi:guide
     position="45,99"
     orientation="0.70710678,0.70710678"
     id="guide9"
     inkscape:locked="false"
     inkscape:label=""
     inkscape:color="rgb(224,27,36)" /><sodipodi:guide
     position="14,42"
     orientation="0.70710678,-0.70710678"
     id="guide10"
     inkscape:locked="false"
     inkscape:label=""
     inkscape:color="rgb(224,27,36)" /><sodipodi:guide
     position="100,55"
     orientation="1,0"
     id="guide11"
     inkscape:locked="false" /></sodipodi:namedview><defs
   id="defs1"><inkscape:path-effect
     effect="fillet_chamfer"
     id="path-effect2"
     is_visible="true"
     lpeversion="1"
     nodesatellites_param="F,0,0,1,0,5,0,1 @ F,0,0,1,0,5,0,1 @ F,0,0,1,0,5,0,1 @ F,0,0,1,0,5,0,1 @ F,0,0,1,0,5,0,1 @ F,0,0,1,0,5,0,1 @ F,0,0,1,0,5,0,1 @ F,0,0,1,0,5,0,1 @ F,0,0,1,0,5,0,1 @ F,0,0,1,0,5,0,1 @ F,0,0,1,0,5,0,1 @ F,0,0,1,0,5,0,1 @ F,0,0,1,0,5,0,1 | F,0,0,1,0,5,0,1 @ F,0,0,1,0,5,0,1 @ F,0,0,1,0,5,0,1 @ F,0,0,1,0,5,0,1 @ F,0,0,1,0,5,0,1 @ F,0,0,1,0,5,0,1 | F,0,0,1,0,5,0,1 @ F,0,0,1,0,5,0,1 @ F,0,0,1,0,5,0,1 @ F,0,0,1,0,5,0,1 @ F,0,0,1,0,5,0,1 @ F,0,0,1,0,5,0,1 @ F,0,0,1,0,5,0,1 @ F,0,0,1,0,5,0,1 @ F,0,0,1,0,5,0,1 @ F,0,0,1,0,5,0,1 @ F,0,0,1,0,5,0,1 @ F,0,0,1,0,5,0,1 @ F,0,0,1,0,5,0,1 @ F,0,0,1,0,5,0,1 @ F,0,0,1,0,5,0,1 @ F,0,0,1,0,5,0,1 @ F,0,0,1,0,5,0,1 @ F,0,0,1,0,5,0,1 @ F,0,0,1,0,5,0,1 @ F,0,0,1,0,5,0,1 @ F,0,0,1,0,5,0,1 @ F,0,0,1,0,5,0,1 @ F,0,0,1,0,5,0,1 @ F,0,0,1,0,5,0,1 @ F,0,0,1,0,5,0,1 @ F,0,0,1,0,5,0,1 @ F,0,0,1,0,5,0,1 @ F,0,0,1,0,5,0,1 @ F,0,0,1,0,5,0,1 @ F,0,0,1,0,5,0,1 @ F,0,0,1,0,5,0,1 @ F,0,0,1,0,5,0,1 @ F,0,0,1,0,5,0,1 @ F,0,0,1,0,5,0,1 @ F,0,0,1,0,5,0,1 @ F,0,0,1,0,5,0,1 @ F,0,0,1,0,5,0,1 @ F,0,0,1,0,5,0,1 | F,0,0,1,0,5,0,1 @ F,0,0,1,0,5,0,1 @ F,0,0,1,0,5,0,1 @ F,0,0,1,0,5,0,1 @ F,0,0,1,0,5,0,1 @ F,0,0,1,0,5,0,1 @ F,0,0,1,0,5,0,1 @ F,0,0,1,0,5,0,1 @ F,0,0,1,0,5,0,1 @ F,0,0,1,0,5,0,1 @ F,0,0,1,0,5,0,1 @ F,0,0,1,0,5,0,1 | F,0,0,1,0,5,0,1 @ F,0,0,1,0,5,0,1 @ F,0,0,1,0,5,0,1 @ F,0,0,1,0,5,0,1 @ F,0,0,1,0,5,0,1 @ F,0,0,1,0,5,0,1 @ F,0,0,1,0,5,0,1 @ F,0,0,1,0,5,0,1 @ F,0,0,1,0,5,0,1 @ F,0,0,1,0,5,0,1 @ F,0,0,1,0,5,0,1 @ F,0,0,1,0,5,0,1 @ F,0,0,1,0,5,0,1 @ F,0,0,1,0,5,0,1 @ F,0,0,1,0,5,0,1 @ F,0,0,1,0,5,0,1 @ F,0,0,1,0,5,0,1 @ F,0,0,1,0,5,0,1 @ F,0,0,1,0,5,0,1 @ F,0,0,1,0,5,0,1 @ F,0,0,1,0,5,0,1 @ F,0,0,1,0,5,0,1 @ F,0,0,1,0,5,0,1 @ F,0,0,1,0,5,0,1 @ F,0,0,1,0,5,0,1 @ F,0,0,1,0,5,0,1 | F,0,0,1,0,5,0,1 @ F,0,0,1,0,5,0,1 @ F,0,0,1,0,5,0,1 @ F,0,0,1,0,5,0,1 @ F,0,0,1,0,5,0,1 @ F,0,0,1,0,5,0,1 @ F,0,0,1,0,5,0,1 @ F,0,0,1,0,5,0,1 @ F,0,0,1,0,5,0,1 @ F,0,0,1,0,5,0,1 @ F,0,0,1,0,5,0,1 @ F,0,0,1,0,5,0,1 @ F,0,0,1,0,5,0,1 @ F,0,0,1,0,5,0,1 @ F,0,0,1,0,5,0,1 @ F,0,0,1,0,5,0,1 @ F,0,0,1,0,5,0,1 @ F,0,0,1,0,5,0,1 @ F,0,0,1,0,5,0,1 @ F,0,0,1,0,5,0,1 @ F,0,0,1,0,5,0,1 @ F,0,0,1,0,5,0,1 @ F,0,0,1,0,5,0,1 @ F,0,0,1,0,5,0,1 @ F,0,0,1,0,5,0,1 @ F,0,0,1,0,5,0,1 @ F,0,0,1,0,5,0,1 @ F,0,0,1,0,5,0,1 @ F,0,0,1,0,5,0,1 @ F,0,0,1,0,5,0,1 @ F,0,0,1,0,5,0,1 | F,0,0,1,0,5,0,1 @ F,0,0,1,0,5,0,1 @ F,0,0,1,0,5,0,1 @ F,0,0,1,0,5,0,1 | F,0,0,1,0,5,0,1 @ F,0,0,1,0,5,0,1 @ F,0,0,1,0,5,0,1 @ F,0,0,1,0,5,0,1 @ F,0,0,1,0,5,0,1 @ F,0,0,1,0,5,0,1 @ F,0,0,1,0,5,0,1 @ F,0,0,1,0,5,0,1 @ F,0,0,1,0,5,0,1 | F,0,0,1,0,5,0,1 @ F,0,0,1,0,5,0,1 @ F,0,0,1,0,5,0,1 @ F,0,0,1,0,5,0,1 @ F,0,0,1,0,5,0,1 @ F,0,0,1,0,5,0,1 @ F,0,0,1,0,5,0,1 @ F,0,0,1,0,5,0,1"
     radius="5"
     unit="px"
     method="auto"
     mode="F"
     chamfer_steps="1"
     flexible="false"
     use_knot_distance="true"
     apply_no_radius="true"
     apply_with_radius="true"
     only_selected="false"
     hide_knots="false" /></defs><g
   inkscape:label="Layer 1"
   inkscape:groupmode="layer"
   id="layer1"><g
   inkscape:label="mlsec-logo"
   id="layer1-6"
   style="display:inline"><path
     style="font-variation-settings:'wght' 700;display:inline;fill:none;stroke:#ffffff;stroke-width:8;stroke-linecap:round;stroke-dasharray:none;stroke-opacity:1;paint-order:stroke fill markers"
     d="M 4,96 96,4"
     id="path1"
     inkscape:label="line"
     sodipodi:nodetypes="cc" /><circle
     style="font-variation-settings:'wght' 700;fill:#ffffff;fill-opacity:1;stroke:none;stroke-width:9.99999;stroke-linecap:round;stroke-dasharray:none;stroke-opacity:1;paint-order:stroke fill markers"
     id="path2"
     cx="17"
     cy="55"
     r="7"
     inkscape:label="dot" /><circle
     style="font-variation-settings:'wght' 700;fill:#ffffff;fill-opacity:1;stroke:none;stroke-width:9.99997;stroke-linecap:round;stroke-dasharray:none;stroke-opacity:1;paint-order:stroke fill markers"
     id="path2-1"
     cx="55"
     cy="17"
     r="7"
     inkscape:label="dot" /><circle
     style="font-variation-settings:'wght' 700;fill:#ffffff;fill-opacity:1;stroke:none;stroke-width:9.99994;stroke-linecap:round;stroke-dasharray:none;stroke-opacity:1;paint-order:stroke fill markers"
     id="path2-6"
     cx="18"
     cy="18"
     r="7"
     inkscape:label="dot" /><g
     inkscape:groupmode="layer"
     id="layer3"
     inkscape:label="long-arrow"
     style="display:none"><path
       style="font-variation-settings:'wght' 700;fill:none;fill-opacity:1;stroke:#000000;stroke-width:6;stroke-linecap:round;stroke-linejoin:round;stroke-dasharray:none;stroke-opacity:1;paint-order:stroke fill markers"
       d="M 97,97 33,33 v 11"
       id="path5-5"
       sodipodi:nodetypes="ccc" /><path
       style="font-variation-settings:'wght' 700;fill:none;fill-opacity:1;stroke:#000000;stroke-width:6;stroke-linecap:round;stroke-dasharray:none;stroke-opacity:1;paint-order:stroke fill markers"
       d="M 33,33 H 44"
       id="path6-2"
       sodipodi:nodetypes="cc" /></g><g
     inkscape:groupmode="layer"
     id="layer2"
     inkscape:label="arrow"
     style="display:inline"><path
       style="font-variation-settings:'wght' 700;fill:none;fill-opacity:1;stroke:#ffffff;stroke-width:6;stroke-linecap:round;stroke-linejoin:round;stroke-dasharray:none;stroke-opacity:1;paint-order:stroke fill markers"
       d="M 97,97 54,54 v 11"
       id="path5"
       sodipodi:nodetypes="ccc" /><path
       style="font-variation-settings:'wght' 700;fill:none;fill-opacity:1;stroke:#ffffff;stroke-width:6;stroke-linecap:round;stroke-dasharray:none;stroke-opacity:1;paint-order:stroke fill markers"
       d="M 54,54 H 65"
       id="path6"
       sodipodi:nodetypes="cc" /></g><g
     inkscape:groupmode="layer"
     id="layer2-0"
     inkscape:label="small-arrow"
     transform="translate(-22,22)"><path
       style="font-variation-settings:'wght' 700;fill:none;fill-opacity:1;stroke:#ffffff;stroke-width:6;stroke-linecap:round;stroke-linejoin:round;stroke-dasharray:none;stroke-opacity:1;paint-order:stroke fill markers"
       d="M 75,75 54,54 v 11"
       id="path5-6"
       sodipodi:nodetypes="ccc" /><path
       style="font-variation-settings:'wght' 700;fill:none;fill-opacity:1;stroke:#ffffff;stroke-width:6;stroke-linecap:round;stroke-dasharray:none;stroke-opacity:1;paint-order:stroke fill markers"
       d="M 54,54 H 65"
       id="path6-8"
       sodipodi:nodetypes="cc" /></g><g
     inkscape:groupmode="layer"
     id="layer2-0-7"
     inkscape:label="small-arrow"
     transform="translate(22,-22)"><path
       style="font-variation-settings:'wght' 700;fill:none;fill-opacity:1;stroke:#ffffff;stroke-width:6;stroke-linecap:round;stroke-linejoin:round;stroke-dasharray:none;stroke-opacity:1;paint-order:stroke fill markers"
       d="M 75,75 54,54 v 11"
       id="path5-6-2"
       sodipodi:nodetypes="ccc" /><path
       style="font-variation-settings:'wght' 700;fill:none;fill-opacity:1;stroke:#ffffff;stroke-width:6;stroke-linecap:round;stroke-dasharray:none;stroke-opacity:1;paint-order:stroke fill markers"
       d="M 54,54 H 65"
       id="path6-8-1"
       sodipodi:nodetypes="cc" /></g></g><path
   d="m 110,79.655998 v -59.408 a 5,5 135 0 1 5,-5 l 4.496,0 a 7.0734658,7.0734658 35.255232 0 1 6.66817,4.713512 l 16.19966,45.772976 a 1.7825979,1.7825979 0.13261118 0 0 3.35814,0.0078 l 16.44406,-45.78852 a 7.1083132,7.1083132 144.87738 0 1 6.68997,-4.70574 h 4.4 a 5,5 45 0 1 5,5 l 0,59.408 a 5,5 135 0 1 -5,5 h -0.512 a 5,5 45 0 1 -5,-5 v -45.296 a 0.84335921,0.84335921 9.5740687 0 0 -1.64006,-0.276632 L 150.18406,79.93263 a 7.0289442,7.0289442 144.57407 0 1 -6.64006,4.723368 6.3357699,6.3357699 40.03596 0 1 -5.62021,-4.721926 L 122.10821,34.513924 a 0.84561705,0.84561705 170.40078 0 0 -1.64421,0.278074 v 44.864 a 5,5 135 0 1 -5,5 l -0.464,0 a 5,5 45 0 1 -5,-5 z m 75.82738,10e-7 0.0411,-59.408002 a 5.003459,5.003459 135.01981 0 1 5.00346,-4.999999 h 0.416 a 5,5 45 0 1 5,5 l 0,50.384 a 5,5 45 0 0 5,5 h 22.064 a 5,5 45 0 1 5,5 4.5383133,4.5383133 141.17289 0 1 -5,4.024 l -32.528,0 a 4.9965434,4.9965434 45.019812 0 1 -4.99654,-4.999999 z m 66.32152,5.648643 c -2.6821,-0.341473 -6.9962,-1.474278 -9.5153,-2.598437 -2.16754,-0.967276 -5.71673,-3.231444 -7.63254,-5.212429 -1.48911,-1.539779 -3.74378,-4.890558 -4.59884,-7.507444 -0.72833,-2.229047 1.32421,-4.146334 4.08563,-4.146334 h 0.704 c 2.76142,0 5.37871,2.304589 6.88398,4.601144 0.65076,0.992826 2.89194,3.388454 5.34186,4.634211 1.1171,0.568034 4.21498,1.67557 6.9517,1.999998 1.80983,0.214545 5.56575,0.262007 8.25794,-0.327895 1.49982,-0.328637 4.89045,-1.466995 6.99988,-3.228113 0.78792,-0.657823 2.99658,-3.081362 3.38652,-5.774947 0.12059,-0.833082 0.30535,-4.006595 -1.20667,-6.268332 -0.63377,-0.948 -3.11286,-3.035796 -5.65639,-4.077024 -1.98285,-0.811706 -5.85944,-1.74645 -8.53949,-2.411844 L 253.39652,53.9408 c -2.68005,-0.665394 -7.05404,-1.67905 -9.62903,-2.670781 -2.33986,-0.901177 -6.13154,-3.027574 -7.99742,-5.049617 -1.30049,-1.409337 -3.22291,-4.778203 -3.76068,-7.474516 -0.48186,-2.416051 -0.49935,-6.728781 0.21305,-9.388542 0.10568,-0.394575 0.22482,-0.782714 0.35741,-1.164418 0.90262,-2.598401 3.64781,-6.261076 5.78175,-8.002657 0.40265,-0.328623 0.82005,-0.644311 1.25219,-0.947065 2.2576,-1.581664 6.43398,-3.325735 9.11919,-3.955356 1.05957,-0.248446 2.15028,-0.445674 3.27212,-0.591683 2.73642,-0.356147 7.2356,-0.357467 9.97575,-0.02884 1.5153,0.181732 2.9491,0.450887 4.30141,0.807467 2.66543,0.70283 6.74324,2.68218 8.91156,4.384265 0.41957,0.329357 0.82151,0.670271 1.20581,1.02274 2.02899,1.860943 4.50475,5.700414 5.34699,8.321884 0.0635,0.197793 0.12364,0.396547 0.18029,0.596263 0.75129,2.648655 -1.54164,4.93605 -4.30306,4.93605 h -0.464 c -2.76142,0 -5.06598,-2.333851 -6.23907,-4.818779 -0.61281,-1.298094 -2.82567,-4.060553 -5.27457,-5.291527 -0.88083,-0.44276 -3.78276,-1.4666 -6.52515,-1.727721 -1.35685,-0.129192 -4.7377,-0.214821 -7.43364,0.359371 -0.47206,0.10054 -0.9264,0.217096 -1.36302,0.349669 -2.62205,0.796135 -6.28752,3.802089 -7.28977,6.346957 -0.70755,1.796595 -0.84026,5.915191 0.64029,8.200144 0.60535,0.934236 3.06837,3.010998 5.62897,4.007846 1.86592,0.726403 5.63751,1.605665 8.31872,2.266393 l 3.73048,0.919294 c 2.68121,0.660728 7.06833,1.621213 9.65425,2.583534 0.3279,0.122023 0.64846,0.248065 0.96167,0.378125 2.5442,1.05647 6.29653,3.657797 8.00795,5.813351 1.23822,1.559575 2.8725,5.135166 3.30334,7.854262 0.28911,1.824589 0.34008,5.622919 -0.38541,8.278815 -0.10651,0.389895 -0.22628,0.774597 -0.35933,1.154105 -0.91047,2.596979 -3.61004,6.286486 -5.72788,8.04736 -0.47394,0.394056 -0.97013,0.771931 -1.48857,1.133623 -2.26127,1.577584 -6.41427,3.368703 -9.0945,4.018442 -1.30821,0.317136 -2.6747,0.559345 -4.09946,0.726627 -2.74103,0.321826 -7.23877,0.317273 -9.97625,-0.03125 z m 35.42111,-5.648644 0,-59.408 a 5,5 135 0 1 5,-5 h 34.832 a 4.9731905,4.9731905 45.154019 0 1 4.97312,4.999928 4.5200146,4.5200146 141.96357 0 1 -5.02112,3.928072 l -24.464,0 a 5,5 135 0 0 -5,5 v 11.072 a 5,5 45 0 0 5,5 h 20.768 a 5,5 45 0 1 5,5 4.4338841,4.4338841 142.88156 0 1 -5,3.784 l -20.816,0 a 5,5 135 0 0 -5,5 l 0,11.552 a 5.0067889,5.0067889 45.038871 0 0 5,5.006784 l 25.376,0.03443 a 5.0067889,5.0067889 45.038871 0 1 5,5.006784 4.5383133,4.5383133 141.17289 0 1 -5,4.024 h -35.648 a 5,5 45 0 1 -5,-5 z m 71.01272,5.631355 c -2.38518,-0.327927 -4.61766,-0.901263 -6.69744,-1.720006 -2.56535,-1.009895 -6.36843,-3.463507 -8.35711,-5.373455 -1.50246,-1.442982 -2.84463,-3.073387 -4.0265,-4.891214 -1.5037,-2.312835 -3.31176,-6.439569 -4.07413,-9.091486 -0.84594,-2.94257 -1.40325,-6.14256 -1.67193,-9.599971 -0.2139,-2.752431 -0.21465,-7.238153 0.002,-9.990326 0.2669,-3.385497 0.81512,-6.508685 1.64466,-9.369562 0.76838,-2.649961 2.59225,-6.772466 4.11243,-9.07416 1.15028,-1.741627 2.45617,-3.299361 3.91765,-4.673202 2.00871,-1.888246 5.85891,-4.270283 8.43744,-5.246295 2.08218,-0.788133 4.31931,-1.339747 6.71141,-1.654843 2.73581,-0.360372 7.24144,-0.366624 9.96806,0.05309 1.27305,0.195961 2.50329,0.4702 3.69072,0.822719 2.6429,0.784608 6.64978,2.888722 8.80934,4.603384 0.67603,0.536757 1.31928,1.103565 1.92974,1.700424 1.97112,1.927197 4.5234,5.67071 5.59933,8.208899 0.3062,0.722341 0.57685,1.458309 0.81196,2.207905 0.82505,2.630577 -1.22924,4.888748 -3.99066,4.888748 h -0.944 c -2.76142,0 -5.33493,-2.258575 -6.48862,-4.759414 -0.61972,-1.343348 -2.4539,-4.355004 -4.62011,-6.044761 -1.06695,-0.832276 -4.04864,-2.49564 -6.7584,-2.951892 -1.7816,-0.29997 -5.54149,-0.352576 -8.21678,0.304304 -0.18529,0.0455 -0.36884,0.09375 -0.55062,0.144747 -2.64735,0.742711 -6.46535,3.329268 -8.092,5.543741 -0.1768,0.240692 -0.349,0.488682 -0.51659,0.743972 -1.51211,2.303343 -2.97352,6.593086 -3.47757,9.305146 -0.30843,1.659521 -0.53186,3.456213 -0.67027,5.390075 -0.19711,2.753794 -0.19626,7.23822 -0.003,9.992299 0.31056,4.422799 1.05644,8.155224 2.23766,11.197275 0.99676,2.566998 3.63414,6.316824 5.86876,7.919385 1.53677,1.102099 3.27193,1.896348 5.20549,2.382746 2.67121,0.671961 7.2525,0.688898 9.8921,-0.0894 1.74702,-0.515121 5.05031,-2.416068 6.85074,-4.494488 0.95536,-1.102867 2.79684,-4.043992 3.64419,-6.6653 0.48456,-1.498985 2.93348,-2.766432 5.6949,-2.766432 l 0.944,0 c 2.76142,0 4.758,2.241805 3.99507,4.892879 -0.63138,2.193949 -2.25477,5.988462 -3.84763,8.238282 -1.30846,1.848131 -4.18693,4.80339 -6.51487,6.276724 -2.16416,1.369677 -6.23424,2.940091 -8.94789,3.427586 -0.4995,0.08973 -1.00931,0.168293 -1.52944,0.235682 -2.73664,0.354563 -7.23897,0.352027 -9.97253,-0.0238 z m 58.31353,-5.631355 v -3.88 c 1.01941,-7.368537 2.9613,-11.208942 4.71988,-13.331146 1.2792,-1.543677 4.18195,-4.127294 6.43903,-5.715444 1.73788,-1.222832 5.18095,-3.191064 7.60074,-4.521437 1.90577,-1.047773 5.45335,-2.904801 7.81043,-4.342639 1.57214,-0.959018 4.72566,-3.024212 6.59038,-5.053197 0.85979,-0.93554 2.87901,-3.677761 3.30812,-6.380401 0.17647,-1.111485 0.30801,-4.410555 -0.86912,-6.883045 -0.97251,-2.042684 -4.20081,-4.855948 -6.81795,-5.667881 -0.0743,-0.02305 -0.14904,-0.04554 -0.22423,-0.06747 -2.64208,-0.770634 -7.23509,-0.755163 -9.88481,-0.0091 -0.40195,0.113176 -0.79383,0.241452 -1.17565,0.384826 -2.56978,0.964969 -6.02538,4.086146 -7.2415,6.54691 -0.17771,0.359594 -0.34174,0.730329 -0.49209,1.112205 -1.00839,2.561239 -3.36181,4.8558 -6.12323,4.8558 h -0.08 c -2.76142,0 -5.0089,-2.266056 -4.40761,-4.956653 0.13153,-0.588573 0.28469,-1.168418 0.45947,-1.739538 0.8065,-2.635281 3.04273,-6.598232 4.95604,-8.579111 0.43851,-0.453998 0.90099,-0.889909 1.38745,-1.307735 2.09073,-1.795751 6.10574,-3.912151 8.75722,-4.66382 1.34984,-0.382667 2.78318,-0.671398 4.30002,-0.866191 2.73707,-0.351496 7.24045,-0.355801 9.9718,0.03462 0.94736,0.135418 1.86321,0.311579 2.74754,0.528481 2.67689,0.656573 6.79384,2.579326 8.93762,4.309576 0.23521,0.18984 0.4648,0.384404 0.68877,0.583692 2.05639,1.829816 4.5165,5.689907 5.29502,8.329759 0.0986,0.33421 0.18822,0.673018 0.26899,1.016424 0.63077,2.6821 0.63539,7.230053 0.0555,9.924622 -0.51742,2.404235 -2.45509,6.252706 -4.22784,8.362321 -1.22949,1.463126 -4.10015,3.969474 -6.38371,5.518957 -1.64116,1.113583 -5.01372,2.971469 -7.45511,4.261773 -1.80511,0.95402 -5.2959,2.687422 -7.66776,4.100339 -1.4974,0.892004 -4.62127,2.86252 -6.50718,4.870877 -0.79458,0.846173 -2.78923,3.506267 -3.18109,6.211501 -0.14953,1.032336 -0.13113,2.421355 -0.13113,3.084102 h 31.288 a 5,5 45 0 1 5,5 4.4960641,4.4960641 141.84682 0 1 -5,3.928 l -37.712,0 a 5,5 45 0 1 -5,-5 z m 60.40014,0 v -2.384 a 5,5 135 0 1 5,-5 h 1.856 a 5,5 45 0 1 5,5 v 2.384 a 5,5 135 0 1 -5,5 l -1.856,0 a 5,5 45 0 1 -5,-5 z m 32.45067,5.614027 c -3.8872,-0.726833 -7.27583,-2.35013 -10.16589,-4.869891 -2.07766,-1.81145 -4.76951,-5.453947 -5.98273,-7.930057 -2.25861,-4.609719 -3.60062,-10.370072 -4.02603,-17.28106 -0.16963,-2.755773 -0.17003,-7.238382 0.003,-9.993905 0.22882,-3.63738 0.71704,-6.959486 1.46467,-9.96632 0.66585,-2.677957 2.27099,-6.885177 3.63944,-9.280787 0.88992,-1.557899 1.87947,-2.961657 2.96865,-4.211275 1.8104,-2.077081 5.49641,-4.739593 8.0492,-5.775714 1.30449,-0.52946 2.67107,-0.933251 4.09974,-1.211373 2.70637,-0.526853 7.23583,-0.528384 9.94162,0.0012 3.82346,0.74829 7.17412,2.403975 10.05199,4.967056 2.05865,1.833476 4.74979,5.473801 5.97479,7.944128 2.30405,4.646358 3.6714,10.458692 4.10203,17.437002 0.17006,2.755745 0.17014,7.238283 -5.8e-4,9.993984 -0.42904,6.92579 -1.78431,12.703583 -4.06581,17.333378 -1.21886,2.473404 -3.9073,6.117438 -5.97791,7.937038 -2.88358,2.534013 -6.26046,4.167619 -10.13065,4.900819 -2.7092,0.513253 -7.23533,0.512625 -9.94585,0.0058 z m 9.90688,-9.194862 c 0.93282,-0.38434 1.79564,-0.891663 2.58846,-1.521969 2.14835,-1.707992 4.28788,-5.797011 5.03253,-8.44932 0.83237,-2.96473 1.35932,-6.618689 1.58087,-10.961877 0.14067,-2.757536 0.13997,-7.238356 0.003,-9.996117 -0.22347,-4.510947 -0.76654,-8.293187 -1.62922,-11.346719 -0.74902,-2.651208 -2.8678,-6.741552 -4.97747,-8.499275 -0.81294,-0.677316 -1.69798,-1.220435 -2.65513,-1.629355 -2.52198,-1.077461 -7.23313,-1.073815 -9.75096,0.01241 -0.96958,0.418289 -1.86833,0.975154 -2.69625,1.670597 -2.1034,1.766819 -4.25736,5.832207 -5.02748,8.477348 -0.88914,3.053937 -1.4493,6.825655 -1.68048,11.315153 -0.14198,2.757462 -0.14264,7.238555 0.003,9.995827 0.2284,4.329979 0.77071,7.974309 1.62693,10.932989 0.76576,2.646078 2.9587,6.698538 5.10515,8.411115 0.83008,0.662288 1.73176,1.192461 2.70504,1.59052 2.53975,1.038716 7.23501,1.043889 9.77185,-0.0013 z"
   id="text1"
   style="font-size:96px;line-height:0.9;font-family:'Public Sans';-inkscape-font-specification:'Public Sans, @wght=500';font-variation-settings:'wght' 500;text-align:center;letter-spacing:-10px;text-anchor:middle;stroke-width:6;stroke-linecap:round;stroke-linejoin:round;paint-order:stroke fill markers;fill:#ffffff;fill-opacity:1"
   inkscape:label="MLSEC 2.0"
   aria-label="MLSEC  2 .0"
   inkscape:path-effect="#path-effect2"
   inkscape:original-d="m 110,84.655998 v -69.408 h 14.496 l 19.536,55.2 19.824,-55.2 h 14.4 v 69.408 h -10.512 v -55.296 l -19.2,55.296 h -8.976 l -19.104,-54.864 v 54.864 z m 75.82392,0 0.048,-69.408 h 10.416 v 60.384 h 32.064 v 9.024 z m 71.31193,0.96 q -5.088,0 -9.792,-1.248 -4.656,-1.248 -8.496,-3.696 -3.792,-2.496 -6.288,-6.192 -2.448,-3.696 -3.072,-8.64 h 10.704 q 0.816,3.744 3.216,6.288 2.448,2.544 6.096,3.84 3.696,1.296 8.16,1.296 4.128,0 7.632,-1.296 3.504,-1.296 5.664,-3.744 2.16,-2.448 2.16,-6 0,-3.984 -2.688,-6.288 -2.64,-2.352 -7.968,-3.744 l -13.92,-3.456 q -5.04,-1.2 -8.88,-3.408 -3.84,-2.256 -5.952,-5.904 -2.112,-3.696 -2.112,-9.12 0,-6.048 3.312,-10.512 3.36,-4.512 9.072,-6.96 5.76,-2.448 13.008,-2.448 8.304,0 13.968,2.832 5.712,2.832 8.64,7.488 2.976,4.608 3.024,10.032 h -10.464 q -0.432,-4.416 -2.64,-7.008 -2.16,-2.64 -5.52,-3.792 -3.312,-1.152 -7.344,-1.152 -7.104,0 -10.704,3.168 -3.552,3.12 -3.552,7.44 0,3.984 2.592,6.288 2.64,2.304 7.776,3.552 l 13.44,3.312 q 6.336,1.392 10.128,4.176 3.84,2.736 5.52,6.48 1.68,3.696 1.68,8.112 0,5.904 -3.312,10.512 -3.312,4.56 -9.264,7.2 -5.904,2.592 -13.824,2.592 z m 30.43416,-0.96 v -69.408 h 44.832 l -0.048,8.928 h -34.464 v 21.072 h 30.768 v 8.784 h -30.816 v 21.552 l 35.376,0.048 v 9.024 z m 75.99801,0.96 q -9.408,0 -16.128,-4.32 -6.72,-4.368 -10.32,-12.384 -3.552,-8.064 -3.552,-19.296 0,-11.184 3.552,-19.056 3.552,-7.92 10.272,-12.096 6.72,-4.176 16.176,-4.176 7.488,0 13.296,3.072 5.808,3.072 9.312,8.256 3.552,5.184 4.224,11.472 h -10.944 q -0.72,-3.936 -2.784,-7.104 -2.016,-3.216 -5.376,-5.04 -3.36,-1.872 -7.968,-1.872 -5.904,0 -10.032,2.784 -4.128,2.784 -6.288,8.688 -2.112,5.904 -2.112,15.216 0,14.064 4.752,20.592 4.752,6.48 13.68,6.48 4.608,0 7.968,-1.968 3.36,-2.016 5.376,-5.328 2.064,-3.36 2.784,-7.296 h 10.944 q -0.576,4.56 -2.4,8.784 -1.824,4.176 -5.088,7.488 -3.216,3.312 -8.016,5.232 -4.8,1.872 -11.328,1.872 z m 53.32824,-0.96 v -5.808 -3.072 q 0,-5.28 1.968,-9.168 2.016,-3.888 5.28,-6.768 3.264,-2.928 7.152,-5.184 3.936,-2.256 7.824,-4.32 3.888,-2.064 7.152,-4.272 3.264,-2.256 5.232,-5.04 2.016,-2.832 2.016,-6.624 0,-4.992 -3.504,-8.112 -3.504,-3.12 -9.504,-3.12 -6.384,0 -10.368,3.6 -3.984,3.6 -4.608,9.936 h -10.08 q 0.144,-6.192 3.024,-11.28 2.88,-5.088 8.496,-8.112 5.616,-3.024 13.92,-3.024 7.2,0 12.432,2.544 5.28,2.496 8.16,7.008 2.88,4.512 2.88,10.512 0,5.328 -1.968,9.168 -1.968,3.84 -5.184,6.624 -3.168,2.784 -7.008,4.944 -3.84,2.112 -7.68,4.08 -3.84,1.92 -7.056,4.08 -3.216,2.112 -5.184,4.8 -1.968,2.688 -1.968,6.48 v 1.2 h 36.288 v 8.928 z m 60.40014,0 v -12.384 h 11.856 v 12.384 z m 37.42395,1.056 q -11.76,0 -18.528,-8.976 -6.768,-9.024 -6.768,-26.544 0,-11.76 3.12,-19.728 3.12,-8.016 8.784,-12.096 5.712,-4.08 13.44,-4.08 11.568,0 18.384,9.12 6.864,9.072 6.864,26.688 0,17.52 -6.816,26.592 -6.768,9.024 -18.48,9.024 z m 0.048,-8.736 q 7.104,0 10.656,-6.24 3.552,-6.288 3.552,-20.592 0,-14.592 -3.6,-20.976 -3.6,-6.432 -10.656,-6.432 -7.008,0 -10.704,6.48 -3.696,6.432 -3.696,20.928 0,14.256 3.648,20.544 3.696,6.288 10.8,6.288 z"
   transform="translate(9.536,0.208002)" />
<text
   xml:space="preserve"
   style="font-style:normal;font-variant:normal;font-weight:normal;font-stretch:normal;font-size:12px;line-height:1;font-family:arial;-inkscape-font-specification:arial;text-align:center;letter-spacing:0px;text-anchor:middle;display:none;fill:#000000;stroke-width:6;stroke-linecap:square;paint-order:stroke fill markers"
   x="50.294922"
   y="28.212891"
   id="text2"
   inkscape:label="attribution"><tspan
     sodipodi:role="line"
     id="tspan1"
     x="50.294922"
     y="28.212891"
     style="font-style:normal;font-variant:normal;font-weight:normal;font-stretch:normal;font-size:8px;font-family:Sans;-inkscape-font-specification:'Sans, Normal';font-variant-ligatures:normal;font-variant-caps:normal;font-variant-numeric:normal;font-variant-east-asian:normal">Created by</tspan><tspan
     sodipodi:role="line"
     x="50.294922"
     y="40.212891"
     style="font-style:normal;font-variant:normal;font-weight:normal;font-stretch:normal;font-size:8px;font-family:Sans;-inkscape-font-specification:'Sans, Normal';font-variant-ligatures:normal;font-variant-caps:normal;font-variant-numeric:normal;font-variant-east-asian:normal"
     id="tspan5">Aaron Thompson</tspan><tspan
     sodipodi:role="line"
     x="50.294922"
     y="52.212891"
     id="tspan2"
     style="font-style:normal;font-variant:normal;font-weight:normal;font-stretch:normal;font-size:8px;font-family:Sans;-inkscape-font-specification:'Sans, Normal';font-variant-ligatures:normal;font-variant-caps:normal;font-variant-numeric:normal;font-variant-east-asian:normal">Graham Dungan</tspan><tspan
     sodipodi:role="line"
     x="50.294922"
     y="64.212891"
     id="tspan4"
     style="font-style:normal;font-variant:normal;font-weight:normal;font-stretch:normal;font-size:8px;font-family:Sans;-inkscape-font-specification:'Sans, Normal';font-variant-ligatures:normal;font-variant-caps:normal;font-variant-numeric:normal;font-variant-east-asian:normal">Karl Farrar</tspan><tspan
     sodipodi:role="line"
     x="50.294922"
     y="76.212891"
     id="tspan3"
     style="font-style:normal;font-variant:normal;font-weight:normal;font-stretch:normal;font-size:8px;font-family:Sans;-inkscape-font-specification:'Sans, Normal';font-variant-ligatures:normal;font-variant-caps:normal;font-variant-numeric:normal;font-variant-east-asian:normal">Maxim Mouget</tspan></text>
</g>
</svg>
